<svg width="141" height="23" viewBox="0 0 141 23" fill="none" xmlns="http://www.w3.org/2000/svg">
<g clip-path="url(#clip0_191_46023)">
<path fill-rule="evenodd" clip-rule="evenodd" d="M6.46888 0.210969C6.96214 -0.0713591 7.56829 -0.0702503 8.06051 0.213881L21.646 8.05594C22.1402 8.34118 22.4446 8.86841 22.4446 9.43899V17.8454C22.4446 18.3901 22.1669 18.8973 21.708 19.1907L19.4455 20.6375C18.3825 21.3173 16.9882 20.5539 16.9882 19.2921V13.0727C16.9882 12.2322 16.5364 11.4566 15.8052 11.0422L4.04577 4.37642C2.9691 3.76612 2.96587 2.21598 4.03998 1.60119L6.46888 0.210969ZM4.24873 6.66747C4.73059 6.41443 5.30814 6.42421 5.78115 6.69343L7.81899 7.85331C8.92812 8.4846 8.88528 10.0975 7.74421 10.669L6.99693 11.0433C6.20701 11.439 5.70818 12.2467 5.70818 13.1302V19.3484C5.70818 20.6097 4.3148 21.3731 3.25179 20.6943L1.11248 19.3283C0.65305 19.0349 0.375 18.5275 0.375 17.9823V9.66688C0.375 9.07345 0.704068 8.52895 1.22946 8.25304L4.24873 6.66747ZM2.61988 4.25389C1.82663 3.82447 0.862561 4.39884 0.862561 5.30086C0.862561 6.21498 1.85009 6.78807 2.64377 6.33454C3.4542 5.87143 3.44073 4.69827 2.61988 4.25389ZM6.60963 20.8829C6.60963 19.9809 7.5737 19.4065 8.36695 19.8359C9.1878 20.2803 9.20127 21.4535 8.39084 21.9166C7.59716 22.3701 6.60963 21.797 6.60963 20.8829ZM20.8953 4.45311C21.6885 4.02369 22.6526 4.59805 22.6526 5.50008C22.6526 6.4142 21.6651 6.98729 20.8714 6.53376C20.061 6.07065 20.0744 4.89749 20.8953 4.45311ZM15.9729 13.7579C15.9729 12.8559 15.0088 12.2815 14.2156 12.7109C13.3947 13.1553 13.3813 14.3285 14.1917 14.7916C14.9854 15.2451 15.9729 14.672 15.9729 13.7579ZM7.70713 12.6883C7.5483 12.6004 7.35396 12.6074 7.20181 12.7064C7.06255 12.7969 6.97855 12.9518 6.97855 13.1179V17.0396C6.97855 17.6357 7.31056 18.1822 7.8396 18.4569L13.4298 21.3595C14.4929 21.9115 15.7626 21.14 15.7626 19.9422V18.0857C15.7626 17.5047 15.4471 16.9696 14.9386 16.6883L7.70713 12.6883ZM15.2571 0.780037C15.6579 0.56462 16.1415 0.571277 16.5361 0.797645L19.2273 2.34111C20.0985 2.84076 20.0821 4.10294 19.1982 4.57977C18.8176 4.78513 18.359 4.78453 17.9788 4.57818L15.2523 3.09806C14.3317 2.5983 14.3344 1.27597 15.2571 0.780037ZM29.8506 4.58928L34.5306 17.9993H37.3386L42.0006 4.58928H39.3366L35.9256 14.9059L32.5146 4.58928H29.8506ZM44.0429 17.5313C44.7989 17.9873 45.6809 18.2153 46.6889 18.2153C47.3609 18.2153 47.9729 18.1133 48.5249 17.9093C49.0889 17.7053 49.5749 17.4233 49.9829 17.0633C50.3909 16.7033 50.6909 16.2893 50.8829 15.8213L48.9749 14.8853C48.7589 15.2693 48.4589 15.5753 48.0749 15.8033C47.7029 16.0313 47.2469 16.1453 46.7069 16.1453C46.1669 16.1453 45.6869 16.0193 45.2669 15.7673C44.8589 15.5153 44.5469 15.1613 44.3309 14.7053C44.2057 14.4181 44.128 14.1061 44.0977 13.7693H51.1529C51.2009 13.6373 51.2309 13.4813 51.2429 13.3013C51.2669 13.1213 51.2789 12.9473 51.2789 12.7793C51.2789 12.1193 51.1709 11.5073 50.9549 10.9433C50.7389 10.3673 50.4269 9.85728 50.0189 9.41328C49.6109 8.96928 49.1129 8.62128 48.5249 8.36928C47.9489 8.11728 47.2769 7.99128 46.5089 7.99128C45.5969 7.99128 44.7689 8.21328 44.0249 8.65728C43.2929 9.10128 42.7109 9.70728 42.2789 10.4753C41.8589 11.2313 41.6489 12.1013 41.6489 13.0853C41.6489 14.0333 41.8589 14.8973 42.2789 15.6773C42.6989 16.4573 43.2869 17.0753 44.0429 17.5313ZM44.1463 11.9693C44.1846 11.7626 44.2401 11.5706 44.3129 11.3933C44.5169 10.9133 44.8109 10.5533 45.1949 10.3133C45.5789 10.0613 46.0169 9.93528 46.5089 9.93528C47.0249 9.93528 47.4629 10.0613 47.8229 10.3133C48.1949 10.5653 48.4589 10.9073 48.6149 11.3393C48.6917 11.5367 48.7396 11.7467 48.7588 11.9693H44.1463ZM54.7944 17.5493C55.5744 17.9933 56.4504 18.2153 57.4224 18.2153C58.1304 18.2153 58.7844 18.0953 59.3844 17.8553C59.9844 17.6033 60.5004 17.2613 60.9324 16.8293C61.3644 16.3853 61.6764 15.8873 61.8684 15.3353L59.7984 14.3993C59.6184 14.9033 59.3184 15.3053 58.8984 15.6053C58.4784 15.9053 57.9864 16.0553 57.4224 16.0553C56.9064 16.0553 56.4444 15.9293 56.0364 15.6773C55.6404 15.4253 55.3284 15.0773 55.1004 14.6333C54.8724 14.1893 54.7584 13.6793 54.7584 13.1033C54.7584 12.5273 54.8724 12.0173 55.1004 11.5733C55.3284 11.1293 55.6404 10.7813 56.0364 10.5293C56.4444 10.2773 56.9064 10.1513 57.4224 10.1513C57.9744 10.1513 58.4604 10.3013 58.8804 10.6013C59.3124 10.9013 59.6184 11.2973 59.7984 11.7893L61.8684 10.8893C61.6764 10.3013 61.3584 9.79728 60.9144 9.37728C60.4824 8.94528 59.9664 8.60928 59.3664 8.36928C58.7664 8.11728 58.1184 7.99128 57.4224 7.99128C56.4504 7.99128 55.5744 8.21328 54.7944 8.65728C54.0264 9.10128 53.4204 9.70728 52.9764 10.4753C52.5324 11.2433 52.3104 12.1133 52.3104 13.0853C52.3104 14.0573 52.5324 14.9333 52.9764 15.7133C53.4204 16.4813 54.0264 17.0933 54.7944 17.5493ZM65.1876 17.2073C65.7996 17.8073 66.6576 18.1073 67.7616 18.1073C67.9416 18.1073 68.1395 18.0953 68.3556 18.0713C68.5715 18.0473 68.7635 18.0233 68.9315 17.9993V15.9833C68.8236 15.9953 68.7095 16.0073 68.5896 16.0193C68.4816 16.0313 68.3856 16.0373 68.3016 16.0373C67.9175 16.0373 67.5995 15.9773 67.3475 15.8573C67.1076 15.7373 66.9276 15.5633 66.8075 15.3353C66.6996 15.1073 66.6456 14.8313 66.6456 14.5073V10.3133H68.8956V8.20728H66.6456V5.97528H64.2876V6.73128C64.2876 7.21128 64.1556 7.57728 63.8916 7.82928C63.6276 8.08128 63.2556 8.20728 62.7756 8.20728H62.5956V10.3133H64.2876V14.6333C64.2876 15.7373 64.5876 16.5953 65.1876 17.2073ZM72.4452 17.5493C73.2372 17.9933 74.1132 18.2153 75.0732 18.2153C76.0212 18.2153 76.8852 17.9933 77.6652 17.5493C78.4452 17.1053 79.0692 16.4993 79.5372 15.7313C80.0052 14.9633 80.2392 14.0873 80.2392 13.1033C80.2392 12.1073 80.0052 11.2313 79.5372 10.4753C79.0812 9.70728 78.4632 9.10128 77.6832 8.65728C76.9032 8.21328 76.0332 7.99128 75.0732 7.99128C74.1012 7.99128 73.2252 8.21328 72.4452 8.65728C71.6652 9.10128 71.0412 9.70728 70.5732 10.4753C70.1172 11.2433 69.8892 12.1193 69.8892 13.1033C69.8892 14.0873 70.1172 14.9633 70.5732 15.7313C71.0412 16.4993 71.6652 17.1053 72.4452 17.5493ZM76.4592 15.6773C76.0632 15.9293 75.6012 16.0553 75.0732 16.0553C74.5332 16.0553 74.0592 15.9293 73.6512 15.6773C73.2432 15.4253 72.9192 15.0773 72.6792 14.6333C72.4512 14.1773 72.3372 13.6673 72.3372 13.1033C72.3372 12.5273 72.4512 12.0233 72.6792 11.5913C72.9192 11.1473 73.2432 10.7993 73.6512 10.5473C74.0592 10.2833 74.5332 10.1513 75.0732 10.1513C75.6012 10.1513 76.0632 10.2833 76.4592 10.5473C76.8672 10.7993 77.1852 11.1473 77.4132 11.5913C77.6532 12.0233 77.7732 12.5273 77.7732 13.1033C77.7732 13.6673 77.6532 14.1773 77.4132 14.6333C77.1852 15.0773 76.8672 15.4253 76.4592 15.6773ZM83.8814 8.20728H81.6674V17.9993H84.0254V12.5453C84.0254 11.8013 84.2294 11.2253 84.6374 10.8173C85.0454 10.3973 85.5854 10.1873 86.2574 10.1873H87.1034V8.09928H86.5274C85.8434 8.09928 85.2554 8.24328 84.7634 8.53128C84.3953 8.75214 84.1013 9.10356 83.8814 9.58553V8.20728ZM91.7658 4.58928L87.1398 17.9993H89.7858L90.7578 15.1193H95.9418L96.8958 17.9993H99.5598L94.9338 4.58928H91.7658ZM93.3498 7.30452L95.2398 12.9593H91.4598L93.3498 7.30452ZM102.159 17.5493C102.903 17.9933 103.749 18.2153 104.697 18.2153C105.405 18.2153 106.059 18.0773 106.659 17.8013C107.121 17.5793 107.505 17.2861 107.811 16.9216V17.9993H110.043V4.37328H107.685V9.19664C107.401 8.8892 107.059 8.63741 106.659 8.44128C106.083 8.14128 105.423 7.99128 104.679 7.99128C103.755 7.99128 102.915 8.21928 102.159 8.67528C101.415 9.13128 100.827 9.74328 100.395 10.5113C99.9627 11.2793 99.7467 12.1433 99.7467 13.1033C99.7467 14.0513 99.9627 14.9153 100.395 15.6953C100.827 16.4753 101.415 17.0933 102.159 17.5493ZM106.371 15.6773C105.963 15.9293 105.489 16.0553 104.949 16.0553C104.421 16.0553 103.947 15.9293 103.527 15.6773C103.107 15.4253 102.777 15.0773 102.537 14.6333C102.309 14.1893 102.195 13.6793 102.195 13.1033C102.195 12.5273 102.309 12.0233 102.537 11.5913C102.777 11.1473 103.107 10.7993 103.527 10.5473C103.947 10.2833 104.421 10.1513 104.949 10.1513C105.489 10.1513 105.963 10.2773 106.371 10.5293C106.779 10.7813 107.097 11.1353 107.325 11.5913C107.565 12.0353 107.685 12.5393 107.685 13.1033C107.685 13.6793 107.565 14.1893 107.325 14.6333C107.097 15.0773 106.779 15.4253 106.371 15.6773ZM114.09 8.20728H111.876V17.9993H114.234V12.2573C114.234 11.8253 114.312 11.4533 114.468 11.1413C114.624 10.8293 114.846 10.5893 115.134 10.4213C115.422 10.2413 115.752 10.1513 116.124 10.1513C116.508 10.1513 116.838 10.2413 117.114 10.4213C117.402 10.5893 117.624 10.8293 117.78 11.1413C117.936 11.4533 118.014 11.8253 118.014 12.2573V17.9993H120.372V12.2573C120.372 11.8253 120.45 11.4533 120.606 11.1413C120.762 10.8293 120.984 10.5893 121.272 10.4213C121.56 10.2413 121.89 10.1513 122.262 10.1513C122.658 10.1513 122.994 10.2413 123.27 10.4213C123.546 10.5893 123.762 10.8293 123.918 11.1413C124.074 11.4533 124.152 11.8253 124.152 12.2573V17.9993H126.51V11.6993C126.51 10.9673 126.354 10.3253 126.042 9.77328C125.73 9.20928 125.298 8.77128 124.746 8.45928C124.206 8.14728 123.588 7.99128 122.892 7.99128C122.112 7.99128 121.422 8.18928 120.822 8.58528C120.436 8.83245 120.112 9.16164 119.85 9.57287C119.636 9.20322 119.336 8.88603 118.95 8.62128C118.338 8.20128 117.63 7.99128 116.826 7.99128C116.094 7.99128 115.458 8.16528 114.918 8.51328C114.566 8.74068 114.29 9.04493 114.09 9.42604V8.20728ZM130.503 8.20728H128.145V17.9993H130.503V8.20728ZM128.145 4.58928V7.10928H130.503V4.58928H128.145ZM134.535 8.20728H132.321V17.9993H134.679V12.2573C134.679 11.8253 134.763 11.4533 134.931 11.1413C135.099 10.8293 135.333 10.5893 135.633 10.4213C135.933 10.2413 136.275 10.1513 136.659 10.1513C137.055 10.1513 137.397 10.2413 137.685 10.4213C137.985 10.5893 138.219 10.8293 138.387 11.1413C138.555 11.4533 138.639 11.8253 138.639 12.2573V17.9993H140.997V11.6993C140.997 10.9673 140.841 10.3253 140.529 9.77328C140.217 9.20928 139.779 8.77128 139.215 8.45928C138.663 8.14728 138.027 7.99128 137.307 7.99128C136.611 7.99128 135.999 8.14728 135.471 8.45928C135.073 8.69034 134.761 9.00681 134.535 9.4087V8.20728Z" fill="#46C8FF"/>
<path fill-rule="evenodd" clip-rule="evenodd" d="M1119 0.117188C1119 -7.6148 1112.73 -13.8828 1105 -13.8828H213C205.268 -13.8828 199 -7.6148 199 0.117188V30.9277C199 38.6597 192.732 44.9277 185 44.9277H-19.5C-27.232 44.9277 -33.5 51.1957 -33.5 58.9277V794.279C-33.5 802.011 -27.232 808.279 -19.5 808.279H1202.5C1210.23 808.279 1216.5 802.011 1216.5 794.279V58.9277C1216.5 51.1957 1210.23 44.9277 1202.5 44.9277H1133C1125.27 44.9277 1119 38.6597 1119 30.9277V0.117188Z" fill="#25272C"/>
</g>
<defs>
<clipPath id="clip0_191_46023">
<rect width="1281" height="832" fill="white" transform="translate(-49 -27)"/>
</clipPath>
</defs>
</svg>
